<?xml version="1.0" standalone="no"?><!DOCTYPE svg PUBLIC "-//W3C//DTD SVG 1.1//EN" "http://www.w3.org/Graphics/SVG/1.1/DTD/svg11.dtd"><svg t="1685283451218" class="icon" viewBox="0 0 1024 1024" version="1.1" xmlns="http://www.w3.org/2000/svg" p-id="1833" xmlns:xlink="http://www.w3.org/1999/xlink" width="16" height="16"><path d="M512 64c247.424 0 448 200.576 448 448S759.424 960 512 960 64 759.424 64 512l0.08-2.4A32 32 0 0 1 128 512c0 212.08 171.92 384 384 384s384-171.92 384-384S724.08 128 512 128a382.496 382.496 0 0 0-250.736 93.152l-41.776-48.48A446.24 446.24 0 0 1 512 64z m0 192c141.392 0 256 114.608 256 256s-114.608 256-256 256-256-114.608-256-256l0.08-2.4A32 32 0 0 1 320 512c0 106.032 85.968 192 192 192s192-85.968 192-192-85.968-192-192-192a191.248 191.248 0 0 0-125.36 46.56l-41.792-48.464A255.008 255.008 0 0 1 512 256z" fill="#17191C" p-id="1834"></path><path d="M236.848 158.432l320.352 355.952-47.584 42.816-320.32-355.936a450.608 450.608 0 0 1 47.552-42.832z" fill="#1062FE" p-id="1835"></path></svg>