<?xml version="1.0" standalone="no"?><!DOCTYPE svg PUBLIC "-//W3C//DTD SVG 1.1//EN" "http://www.w3.org/Graphics/SVG/1.1/DTD/svg11.dtd"><svg t="1685283437571" class="icon" viewBox="0 0 1024 1024" version="1.1" xmlns="http://www.w3.org/2000/svg" p-id="1672" xmlns:xlink="http://www.w3.org/1999/xlink" width="16" height="16"><path d="M512 64c247.424 0 448 200.576 448 448S759.424 960 512 960 64 759.424 64 512 264.576 64 512 64z m0 64C299.92 128 128 299.92 128 512s171.92 384 384 384 384-171.92 384-384S724.08 128 512 128z" fill="#17191C" p-id="1673"></path><path d="M248 512a56 56 0 1 0 112 0 56 56 0 0 0-112 0zM456 512a56 56 0 1 0 112 0 56 56 0 0 0-112 0zM664 512a56 56 0 1 0 112 0 56 56 0 0 0-112 0z" fill="#1062FE" p-id="1674"></path></svg>