<?xml version="1.0" standalone="no"?><!DOCTYPE svg PUBLIC "-//W3C//DTD SVG 1.1//EN" "http://www.w3.org/Graphics/SVG/1.1/DTD/svg11.dtd"><svg t="1685283129649" class="icon" viewBox="0 0 1024 1024" version="1.1" xmlns="http://www.w3.org/2000/svg" p-id="2620" xmlns:xlink="http://www.w3.org/1999/xlink" width="16" height="16"><path d="M512 988.338605a149.658791 149.658791 0 0 1-148.110884-122.796652 18.432 18.432 0 0 0-10.942511-13.371534 381.463814 381.463814 0 0 1-61.654326-34.982698 19.69414 19.69414 0 0 0-18.015256-2.190884A151.802047 151.802047 0 0 1 91.743256 750.139535a145.812837 145.812837 0 0 1 33.589581-186.725209 18.872558 18.872558 0 0 0 7.072744-16.407814c-1.119256-11.716465-1.690791-23.43293-1.69079-35.030326s0.571535-23.373395 1.702697-35.113674a18.872558 18.872558 0 0 0-7.04893-16.384A145.777116 145.777116 0 0 1 91.743256 273.860465a151.813953 151.813953 0 0 1 181.533767-64.809674 19.69414 19.69414 0 0 0 18.015256-2.190884 381.309023 381.309023 0 0 1 61.654326-34.982698 18.432 18.432 0 0 0 10.942511-13.371535 150.718512 150.718512 0 0 1 296.209861 0 18.432 18.432 0 0 0 10.942511 13.371535 381.404279 381.404279 0 0 1 61.654326 34.982698 19.69414 19.69414 0 0 0 18.015256 2.190884A151.79014 151.79014 0 0 1 932.244837 273.860465a145.812837 145.812837 0 0 1-33.589581 186.725209 18.872558 18.872558 0 0 0-7.084651 16.407814 364.93693 364.93693 0 0 1 0 70.060652 18.872558 18.872558 0 0 0 7.084651 16.407813A145.812837 145.812837 0 0 1 932.244837 750.139535a151.802047 151.802047 0 0 1-181.533767 64.809674 19.69414 19.69414 0 0 0-18.015256 2.190884 381.416186 381.416186 0 0 1-61.654326 34.982698 18.432 18.432 0 0 0-10.942511 13.371535A149.658791 149.658791 0 0 1 512 988.338605z m-103.983628-146.455814a104.019349 104.019349 0 0 0 207.955349 0v-7.715721a13.157209 13.157209 0 0 1 8.644465-12.299907l3.393488-1.26214a355.042233 355.042233 0 0 0 98.196838-55.700837 19.134512 19.134512 0 0 1 22.051721-1.285953l2.59572 1.619348a104.578977 104.578977 0 0 0 78.240745 9.811349 103.078698 103.078698 0 0 0 63.106976-47.556465 101.209302 101.209302 0 0 0-37.626046-139.180651l-2.762419-1.476465a18.408186 18.408186 0 0 1-9.585116-19.18214l0.476279-2.917209a322.381395 322.381395 0 0 0 0-105.424372l-0.476279-2.917209a18.408186 18.408186 0 0 1 9.585116-19.18214l3.107721-1.65507a101.054512 101.054512 0 0 0 37.304558-139.073488 103.078698 103.078698 0 0 0-63.106976-47.556465 104.948093 104.948093 0 0 0-78.109768 9.751814l-1.905116 1.309767a19.134512 19.134512 0 0 1-22.623256-0.762046l-2.381395-1.917024a348.779163 348.779163 0 0 0-95.005768-53.581395 19.801302 19.801302 0 0 1-13.002418-18.515349V182.176744a104.019349 104.019349 0 0 0-207.955349 0v7.739535a13.157209 13.157209 0 0 1-8.644465 12.299907l-3.405396 1.26214a355.030326 355.030326 0 0 0-98.173023 55.68893 19.134512 19.134512 0 0 1-22.051721 1.285953l-2.595721-1.619349a104.68614 104.68614 0 0 0-78.240744-9.811348 103.078698 103.078698 0 0 0-63.106977 47.556465 101.209302 101.209302 0 0 0 37.626047 139.180651l2.762418 1.476465a18.408186 18.408186 0 0 1 9.585117 19.18214l-0.476279 2.917209a322.464744 322.464744 0 0 0 0 105.424372l0.476279 2.917209a18.408186 18.408186 0 0 1-9.525582 19.18214l-3.072 1.643163A101.054512 101.054512 0 0 0 131.762605 727.516279a103.078698 103.078698 0 0 0 63.106976 47.556465 104.971907 104.971907 0 0 0 78.109768-9.751814l1.905116-1.309767a19.134512 19.134512 0 0 1 22.623256 0.762046l2.667163 2.036093a347.481302 347.481302 0 0 0 94.636651 53.355163l1.047814 0.39293a18.527256 18.527256 0 0 1 12.157023 17.300838v4.048372z" fill="#3751F9" p-id="2621"></path><path d="M512 714.335256A202.347163 202.347163 0 1 1 714.335256 512 202.585302 202.585302 0 0 1 512 714.335256z m0-356.804465A154.457302 154.457302 0 1 0 666.445395 512 154.635907 154.635907 0 0 0 512 357.530791z" fill="#E9611E" p-id="2622"></path></svg>