<?xml version="1.0" standalone="no"?><!DOCTYPE svg PUBLIC "-//W3C//DTD SVG 1.1//EN" "http://www.w3.org/Graphics/SVG/1.1/DTD/svg11.dtd"><svg t="1685283378106" class="icon" viewBox="0 0 1024 1024" version="1.1" xmlns="http://www.w3.org/2000/svg" p-id="1511" xmlns:xlink="http://www.w3.org/1999/xlink" width="16" height="16"><path d="M945.168 896.16c8.08 0 14.72 6.512 14.832 14.592v34.528a14.88 14.88 0 0 1-14.832 14.72H584.752a14.96 14.96 0 0 1-14.928-14.608v-34.64a14.8 14.8 0 0 1 14.928-14.608h360.416z m0-128.032c8.08 0 14.72 6.528 14.832 14.592v34.528a14.88 14.88 0 0 1-14.832 14.72H584.752a14.96 14.96 0 0 1-14.928-14.608V782.72a14.8 14.8 0 0 1 14.928-14.592h360.416z m0-128.032c8.08 0 14.72 6.528 14.832 14.608v34.624a14.72 14.72 0 0 1-14.832 14.608H584.752a14.96 14.96 0 0 1-14.928-14.608V654.72a14.8 14.8 0 0 1 14.928-14.608h360.416z" fill="#1062FE" p-id="1512"></path><path d="M582.544 64c29.872 0 54.336 22.912 55.664 52.24l9.072 65.728a363.872 363.872 0 0 1 76.688 43.376l62.304-24.896c26.448-13.168 58.64-3.984 73.808 21.36l77.68 132.56a54.304 54.304 0 0 1-18.032 73.696l-53.12 40.512a336.528 336.528 0 0 1 0 86.976l26.88 20.48h-97.264l2.32-12.304c6.528-34.08 6.528-69.376 0-103.568l-3.536-19.248 81.216-61.856-69.488-118.528-94.064 39.728-15.376-12.944a296.48 296.48 0 0 0-91.184-51.568l-18.704-6.752-14.048-99.92h-137.328l-13.84 100.16-18.688 6.736a298.304 298.304 0 0 0-91.296 51.68l-15.28 12.72-94.944-38.288-68.72 116.864 81.232 61.856-3.552 19.36a288.912 288.912 0 0 0-4.96 51.68c0.096 17.376 1.76 34.736 4.848 51.792l3.44 19.36-81.12 61.856 69.728 118.512 93.936-39.728 15.504 12.848a296.48 296.48 0 0 0 91.184 51.552l18.688 6.752 13.84 100.16h53.008v-0.128a15.904 15.904 0 0 1 11.168 4.432c2.88 2.88 4.64 6.976 4.64 11.072v34.08a15.728 15.728 0 0 1-15.696 15.488h-62.08a55.296 55.296 0 0 1-55.776-52.224l-9.072-65.728a368 368 0 0 1-76.576-43.392l-62.192 25.008a56.368 56.368 0 0 1-73.92-21.344L71.52 669.744a54.304 54.304 0 0 1 18.144-73.696l53.344-40.608a326.992 326.992 0 0 1 0-86.976L89.76 427.84a54.336 54.336 0 0 1-18.256-73.376l77.904-132.672a56.384 56.384 0 0 1 73.808-21.472l62.304 25.008a358.288 358.288 0 0 1 76.576-43.376l9.072-65.616A55.2 55.2 0 0 1 426.848 64h155.68z m-77.792 260.384c105.008 0 190.448 84.096 190.448 187.456 0 21.92-3.776 43.6-11.408 64.064H610.56a119.408 119.408 0 0 0 18.592-64.064c0-67.392-55.888-122.272-124.496-122.272-68.496 0-124.384 54.88-124.384 122.272 0.112 67.616 55.888 122.496 124.48 122.496v64.96c-105.008 0-190.432-84.112-190.432-187.456 0-103.36 85.44-187.456 190.448-187.456z" fill="#17191C" p-id="1513"></path></svg>