<?xml version="1.0" standalone="no"?><!DOCTYPE svg PUBLIC "-//W3C//DTD SVG 1.1//EN" "http://www.w3.org/Graphics/SVG/1.1/DTD/svg11.dtd"><svg t="1683031446545" class="icon" viewBox="0 0 1024 1024" version="1.1" xmlns="http://www.w3.org/2000/svg" p-id="13754" width="16" height="16" xmlns:xlink="http://www.w3.org/1999/xlink"><path d="M512 405.383168v62.464h415.744c10.24 0 18.603008 4.438016 25.088 13.312 6.484992 8.875008 8.363008 18.432 5.632 28.672l-77.824 274.432c-12.971008 43.008-36.523008 77.312-70.656 102.912s-73.728 38.742016-118.784 39.424H332.8c-45.056-0.681984-84.651008-13.824-118.784-39.424s-57.684992-59.904-70.656-102.912l-77.824-274.432c-2.731008-10.24-0.852992-19.796992 5.632-28.672 6.484992-8.873984 14.848-13.312 25.088-13.312h350.208v-337.92c0.683008-12.288 6.144-21.504 16.384-27.648s20.820992-6.484992 31.744-1.024l14.336 7.168 3.072-1.024v3.072l237.568 129.024c10.923008 6.827008 16.212992 16.896 15.872 30.208-0.340992 13.312-6.315008 22.699008-17.92 28.16l-235.52 107.52z m0-71.68l148.48-67.584-148.48-80.896v148.48z m0 199.68H140.288l18.432 65.536h706.56l18.432-65.536H512z m-334.848 131.072l29.696 101.376c8.192 28.672 23.723008 51.542016 46.592 68.608 22.868992 17.067008 49.323008 25.942016 79.36 26.624h358.4c30.036992-0.681984 56.491008-9.556992 79.36-26.624 22.868992-17.065984 38.4-39.936 46.592-68.608l29.696-101.376H177.152z" p-id="13755" fill="#2c2c2c"></path></svg>