<?xml version="1.0" standalone="no"?><!DOCTYPE svg PUBLIC "-//W3C//DTD SVG 1.1//EN" "http://www.w3.org/Graphics/SVG/1.1/DTD/svg11.dtd"><svg t="1683035576001" class="icon" viewBox="0 0 1024 1024" version="1.1" xmlns="http://www.w3.org/2000/svg" p-id="15490" xmlns:xlink="http://www.w3.org/1999/xlink" width="16" height="16"><path d="M873.1 136.5l13.3 13.3c13.7 13.6 16.6 34.9 7.1 51.8-20.2 35.9-36.8 73.7-49.5 112.8 64.9-4.8 116-58.9 116-125C960 120.2 903.8 64 834.6 64c-65.6 0-119.4 50.4-124.9 114.6 38.7-12.7 76.1-29.1 111.7-49.2 16.2-9.1 38.5-6.1 51.7 7.1zM158.7 880l-15.6-15.6c-13.5-13.5-16.5-34.6-7.2-51.4 18.3-33 33.3-67.7 45.3-103.4-65.4 4.2-117.2 58.5-117.2 125C64 903.8 120.2 960 189.4 960c67 0 121.5-52.5 125.1-118.6-36.1 12-71.1 27.2-104.5 45.7-16.2 8.9-38.2 5.8-51.3-7.1z m24.4-565.4c-12.4-38-28.4-74.8-47.8-109.8-9.3-16.8-6.4-38 7.2-51.5l14.8-14.9c13.1-13.1 35.3-16.2 51.5-7.2 33.7 18.7 69 34.2 105.5 46.3-6-63.6-59.6-113.5-124.9-113.5C120.2 64 64 120.2 64 189.4c0 67.2 52.8 121.8 119.1 125.2z m662.6 395.1c12.4 36.8 28 72.5 47.1 106.4 9.4 16.8 6.5 38-7 51.6l-14 13.9c-8.1 8.1-19 12.6-30.5 12.6-7.3 0-14.5-1.9-20.9-5.4-35.4-19.8-72.5-36.1-110.9-48.7 3 66.6 57.8 119.8 125.2 119.8 69.3 0 125.4-56.2 125.4-125.4-0.1-65.5-50.4-119.2-114.4-124.8z m-4.4 156.1c3.9 0 7.6-1.5 10.3-4.3l13.9-13.9c4.6-4.6 5.6-11.8 2.4-17.5-54.7-97.4-83.6-208.3-83.6-320.6 0-112.8 29.2-224.1 84.3-321.9 3.2-5.7 2.2-12.9-2.4-17.5l-13.3-13.3c-4.5-4.5-11.9-5.5-17.5-2.4-97.8 55.2-209.1 84.3-321.9 84.3-111.5 0-221.6-28.5-318.6-82.5-5.6-3.1-12.9-2.1-17.4 2.4l-14.9 14.9c-4.6 4.6-5.6 11.8-2.4 17.5 53.9 97 82.5 207.1 82.5 318.6 0 110.9-28.3 220.6-81.7 317.2-3.2 5.7-2.1 12.9 2.4 17.4l15.5 15.5c4.5 4.5 11.8 5.5 17.4 2.4 96.6-53.5 206.3-81.7 317.2-81.7 112.3 0 223.2 28.9 320.6 83.6 2.2 1.1 4.7 1.8 7.2 1.8zM512 664.3c-84.1 0-152.3-68.2-152.3-152.3 0-84.1 68.2-152.3 152.3-152.3S664.3 427.9 664.3 512c0 84.1-68.2 152.3-152.3 152.3z" fill="#333333" p-id="15491"></path></svg>