<?xml version="1.0" standalone="no"?><!DOCTYPE svg PUBLIC "-//W3C//DTD SVG 1.1//EN" "http://www.w3.org/Graphics/SVG/1.1/DTD/svg11.dtd"><svg t="1680509541901" class="icon" viewBox="0 0 1024 1024" version="1.1" xmlns="http://www.w3.org/2000/svg" p-id="2908" width="16" height="16" xmlns:xlink="http://www.w3.org/1999/xlink"><path d="M837.818 670.255H186.182c-13.964 0-23.273-9.31-23.273-23.273V232.727c0-13.963 9.31-23.272 23.273-23.272h651.636c13.964 0 23.273 9.309 23.273 23.272v414.255c0 13.963-9.31 23.273-23.273 23.273z m0-507.346H186.182c-37.237 0-69.818 32.582-69.818 69.818v414.255c0 37.236 32.581 69.818 69.818 69.818h302.545v93.09h-246.69c-13.964 0-23.273 9.31-23.273 23.274s9.309 23.272 23.272 23.272h544.582c13.964 0 23.273-9.309 23.273-23.272s-9.31-23.273-23.273-23.273h-246.69V716.8h297.89c37.237 0 69.818-32.582 69.818-69.818V232.727c0-37.236-32.581-69.818-69.818-69.818zM721.455 372.364c-4.655-4.655-13.964-9.31-18.619-4.655-4.654 0-13.963 4.655-18.618 9.31L591.128 512l-74.473-200.145c-4.655-9.31-9.31-13.964-18.619-18.619-9.309 0-18.618 0-23.272 9.31l-102.4 172.218-60.51-69.819c-9.309-9.309-23.272-9.309-32.581 0L209.455 460.8c-9.31 9.31-13.964 23.273-4.655 32.582s23.273 13.963 32.582 4.654l55.854-41.89 65.164 74.472c4.655 4.655 9.31 9.31 18.618 9.31s13.964-4.655 18.618-9.31l97.746-162.909 69.818 204.8c4.655 9.31 9.31 13.964 18.618 18.618h4.655c9.309 0 13.963-4.654 18.618-9.309l107.054-153.6 74.473 69.818c9.31 9.31 23.273 9.31 32.582 0 9.31-9.309 9.31-23.272 0-32.581l-97.745-93.091z" fill="#2c2c2c" p-id="2909"></path></svg>