<?xml version="1.0" standalone="no"?><!DOCTYPE svg PUBLIC "-//W3C//DTD SVG 1.1//EN" "http://www.w3.org/Graphics/SVG/1.1/DTD/svg11.dtd"><svg t="1685283467631" class="icon" viewBox="0 0 1024 1024" version="1.1" xmlns="http://www.w3.org/2000/svg" p-id="1994" xmlns:xlink="http://www.w3.org/1999/xlink" width="16" height="16"><path d="M848 848a32 32 0 1 1 0 64H176a32 32 0 1 1 0-64h672z m48-736a64 64 0 0 1 64 64v512a64 64 0 0 1-64 64H128a64 64 0 0 1-64-64V176a64 64 0 0 1 64-64h768z m0 64H128v512h768V176z" fill="#17191C" p-id="1995"></path><path d="M741.568 246.56A286.848 286.848 0 0 1 809.216 432c0 70.64-25.44 135.344-67.648 185.44l-48.56-41.68A223.104 223.104 0 0 0 745.216 432c0-54.72-19.616-104.848-52.208-143.744l48.56-41.696z m-459.136 0l48.56 41.696A223.104 223.104 0 0 0 278.784 432c0 54.72 19.632 104.848 52.208 143.76l-48.56 41.68A286.848 286.848 0 0 1 214.784 432c0-70.64 25.44-135.344 67.648-185.44z m374.144 72.96a175.28 175.28 0 0 1 40.64 112.48c0 42.784-15.264 81.984-40.64 112.48L608 502.816A111.536 111.536 0 0 0 633.216 432c0-26.848-9.44-51.488-25.2-70.784l48.56-41.696z m-289.152 0l48.56 41.696A111.536 111.536 0 0 0 390.784 432c0 26.848 9.456 51.504 25.216 70.8l-48.576 41.696A175.28 175.28 0 0 1 326.784 432c0-42.768 15.264-81.984 40.64-112.48zM512 368a64 64 0 1 1 0 128 64 64 0 0 1 0-128z" fill="#1062FE" p-id="1996"></path></svg>